<svg id="Capa_1" enable-background="new 0 0 512 512" height="512" viewBox="0 0 512 512" width="512" xmlns="http://www.w3.org/2000/svg"><g><g><g><path d="m466.075 369.443h-370.837c-34.317 5.504-63.278 33.511-63.278 67.839l.106-422.277c0-8.287 6.716-15.005 15-15.005h404.01c8.284 0 15 6.718 15 15.005-.001 0-.001 359.942-.001 354.438z" fill="#8078be"/><path d="m451.075 0h-195.575v369.427h210.575v-354.422c0-8.287-6.716-15.005-15-15.005z" fill="#5e54ac"/></g><g><path d="m114.475 504.513h329.565v-135.07h-329.565c-37.287 0-67.515 30.227-67.515 67.515v.041c0 37.287 30.227 67.514 67.515 67.514z" fill="#f9f2f2"/><path d="m255.5 369.443h188.54v135.071h-188.54z" fill="#e7e2ee"/></g><g><path d="m444.04 421.974h-337.821c-8.284 0-15 6.718-15 15.004 0 8.287 6.716 15.005 15 15.005h337.821z" fill="#e7e2ee"/><path d="m255.5 421.974h188.54v30.009h-188.54z" fill="#d5d3ea"/></g><g><path d="m465.04 512h-358.081c-41.355 0-74.999-33.655-74.999-75.022s33.644-75.022 74.999-75.022h358.081c8.284 0 15 6.718 15 15.004 0 8.287-6.716 15.005-15 15.005h-358.081c-24.813 0-44.999 20.193-44.999 45.013s20.186 45.013 44.999 45.013h358.081c8.284 0 15 6.718 15 15.004 0 8.287-6.716 15.005-15 15.005z" fill="#5e54ac"/><g fill="#38336b"><path d="m465.04 481.991h-209.54v30.009h209.54c8.284 0 15-6.718 15-15.005 0-8.286-6.716-15.004-15-15.004z"/><path d="m255.5 391.965h209.54c8.284 0 15-6.718 15-15.005s-6.716-15.004-15-15.004h-209.54z"/></g></g></g><g><g><path d="m160.69 144.668c-3.839 0-7.678-1.465-10.607-4.395l-29.935-29.945c-5.858-5.86-5.858-15.36 0-21.219 5.857-5.86 15.355-5.86 21.213 0l29.936 29.945c5.858 5.86 5.858 15.36 0 21.219-2.929 2.93-6.768 4.395-10.607 4.395z" fill="#6f4242"/><path d="m347.558 147.412c-3.839 0-7.677-1.465-10.606-4.395-5.858-5.86-5.858-15.36 0-21.219l32.687-32.697c5.858-5.859 15.354-5.859 21.213 0 5.857 5.86 5.857 15.36 0 21.219l-32.687 32.697c-2.929 2.93-6.768 4.395-10.607 4.395z" fill="#462d20"/></g><g><g><path d="m128.202 118.381c2.341 28.51-1.941 54.71-5.644 70.828-6.756 29.409.833 60.239 21.404 83.448 20.867 23.543 52.443 38.616 89.553 38.616h22.844.212 22.844c35.179 0 66.755-15.074 87.623-38.616 20.572-23.209 28.16-54.039 21.404-83.448-3.703-16.118-7.985-42.318-5.644-70.828z" fill="#b08361"/><path d="m388.442 189.209c-3.703-16.118-7.985-42.318-5.644-70.828h-127.298v192.892h.859.212 22.844c35.179 0 66.755-15.074 87.623-38.616 20.571-23.21 28.16-54.039 21.404-83.448z" fill="#8a5e4e"/></g></g><g><g><g><ellipse cx="300.51" cy="194.196" fill="#ffc178" rx="45.01" ry="45.023" transform="matrix(1 -.005 .005 1 -1.015 1.579)"/><ellipse cx="300.51" cy="194.196" fill="#462d20" rx="15.009" ry="15.014" transform="matrix(1 -.003 .003 1 -.535 .831)"/></g><g><ellipse cx="210.491" cy="194.196" fill="#ffe278" rx="45.01" ry="45.023" transform="matrix(1 -.004 .004 1 -.669 .728)"/><ellipse cx="210.7" cy="194.196" fill="#6f4242" rx="15.009" ry="15.014" transform="matrix(1 -.003 .003 1 -.536 .583)"/></g></g><g><g><path d="m249.819 199.193c2.38 5.045 9.568 4.932 11.957-.109 16.175-34.134 42.885-40.337 42.885-40.337 36.478-10.191 61.413-25.306 78.337-40.26 0 0-64.452-44.816-127.498-.105-63.046-44.711-127.099.105-127.099.105 16.924 14.955 41.459 30.07 77.938 40.26 0-.001 27.78 7.174 43.48 40.446z" fill="#8a5e4e"/></g><path d="m255.5 118.381v84.524c2.489.079 5.032-1.197 6.276-3.82 16.175-34.134 42.885-40.337 42.885-40.337 36.478-10.191 61.413-25.306 78.337-40.26 0-.002-64.452-44.818-127.498-.107z" fill="#6f4242"/></g></g><g><g><path d="m255.5 261.447c-8.284 0-15-6.718-15-15.005v-31.411c0-8.287 6.716-15.005 15-15.005s15 6.718 15 15.005v31.411c0 8.287-6.716 15.005-15 15.005z" fill="#ffc178"/></g><path d="m255.5 200.027v61.421c8.284 0 15-6.718 15-15.005v-31.411c0-8.287-6.716-15.005-15-15.005z" fill="#ff936b"/></g></g></g></svg>